<svg xmlns="http://www.w3.org/2000/svg" xmlns:xlink="http://www.w3.org/1999/xlink" width="50" zoomAndPan="magnify" viewBox="0 0 37.5 37.499999" height="50" preserveAspectRatio="xMidYMid meet" version="1.0"><defs><clipPath id="63f224ba8d"><path d="M 3.699219 3.699219 L 33.304688 3.699219 L 33.304688 33.304688 L 3.699219 33.304688 Z M 3.699219 3.699219 " clip-rule="nonzero"/></clipPath></defs><path fill="#000000" d="M 18.859375 9.792969 C 20.125 9.566406 21.4375 9.675781 22.652344 10.117188 C 24.015625 10.613281 25.203125 11.5 26.0625 12.667969 C 26.921875 13.835938 27.417969 15.230469 27.480469 16.679688 C 27.539062 17.972656 27.253906 19.253906 26.660156 20.394531 C 26.539062 20.625 26.25 20.695312 26.027344 20.558594 C 25.804688 20.425781 25.734375 20.136719 25.851562 19.90625 C 26.355469 18.925781 26.59375 17.828125 26.542969 16.722656 C 26.488281 15.457031 26.054688 14.242188 25.308594 13.222656 C 24.558594 12.203125 23.523438 11.429688 22.332031 11 C 21.289062 10.621094 20.171875 10.523438 19.082031 10.707031 C 18.828125 10.75 18.574219 10.597656 18.511719 10.347656 C 18.449219 10.09375 18.601562 9.839844 18.859375 9.792969 Z M 18.859375 9.792969 " fill-opacity="1" fill-rule="nonzero"/><path fill="#000000" d="M 19.609375 12.859375 C 20.269531 12.773438 20.945312 12.847656 21.578125 13.074219 C 22.355469 13.355469 23.03125 13.863281 23.523438 14.53125 C 24.011719 15.195312 24.292969 15.992188 24.332031 16.820312 C 24.363281 17.488281 24.230469 18.152344 23.949219 18.757812 C 23.84375 18.992188 23.550781 19.0625 23.328125 18.929688 C 23.109375 18.796875 23.042969 18.507812 23.140625 18.269531 C 23.328125 17.828125 23.417969 17.34375 23.394531 16.859375 C 23.367188 16.21875 23.148438 15.601562 22.765625 15.085938 C 22.386719 14.566406 21.859375 14.175781 21.257812 13.957031 C 20.800781 13.789062 20.3125 13.730469 19.835938 13.777344 C 19.578125 13.800781 19.324219 13.652344 19.261719 13.398438 C 19.199219 13.148438 19.351562 12.894531 19.609375 12.859375 Z M 19.609375 12.859375 " fill-opacity="1" fill-rule="nonzero"/><path fill="#000000" d="M 20.878906 28.03125 C 20.832031 28.027344 20.789062 28.023438 20.742188 28.019531 C 19.050781 27.882812 17.402344 27.394531 15.910156 26.585938 C 14.363281 25.753906 13.015625 24.597656 11.957031 23.203125 C 10.898438 21.804688 10.148438 20.195312 9.765625 18.484375 C 9.40625 16.890625 9.367188 15.242188 9.652344 13.632812 C 9.847656 12.296875 10.703125 11.179688 11.871094 10.617188 C 13.007812 10.074219 14.097656 10.773438 14.617188 11.507812 L 16.480469 14.140625 C 17 14.878906 17.292969 16.140625 16.394531 17.027344 C 15.847656 17.570312 15.140625 17.957031 14.347656 18.109375 C 14.617188 18.957031 15.027344 19.757812 15.566406 20.46875 C 16.117188 21.191406 16.785156 21.8125 17.546875 22.300781 C 17.839844 21.710938 18.277344 21.203125 18.808594 20.820312 C 19.78125 20.128906 20.917969 20.566406 21.546875 21.152344 L 23.945312 23.398438 C 24.597656 24.011719 25.140625 25.171875 24.457031 26.222656 C 23.75 27.3125 22.519531 28.039062 21.117188 28.039062 C 21.0625 28.039062 21.007812 28.039062 20.957031 28.035156 C 20.945312 28.035156 20.9375 28.035156 20.929688 28.035156 C 20.921875 28.035156 20.914062 28.035156 20.90625 28.035156 Z M 20.960938 27.230469 C 21.015625 27.234375 21.066406 27.234375 21.117188 27.234375 C 22.234375 27.234375 23.21875 26.65625 23.785156 25.785156 C 24.164062 25.199219 23.90625 24.460938 23.394531 23.988281 L 20.996094 21.738281 C 20.515625 21.292969 19.808594 21.097656 19.277344 21.476562 C 18.714844 21.878906 18.289062 22.457031 18.082031 23.128906 C 18.027344 23.300781 17.835938 23.398438 17.679688 23.3125 C 16.601562 22.730469 15.664062 21.925781 14.925781 20.953125 C 14.292969 20.121094 13.820312 19.179688 13.53125 18.179688 C 13.527344 18.175781 13.527344 18.167969 13.523438 18.164062 C 13.476562 18 13.433594 17.835938 13.398438 17.667969 C 13.394531 17.660156 13.394531 17.652344 13.394531 17.648438 C 13.390625 17.640625 13.390625 17.632812 13.386719 17.628906 C 13.386719 17.617188 13.382812 17.601562 13.378906 17.589844 C 13.371094 17.539062 13.359375 17.488281 13.347656 17.4375 L 13.347656 17.425781 C 13.339844 17.394531 13.363281 17.371094 13.394531 17.371094 C 13.457031 17.375 13.523438 17.378906 13.585938 17.378906 L 13.59375 17.378906 C 13.609375 17.378906 13.628906 17.378906 13.648438 17.378906 C 13.816406 17.375 13.984375 17.359375 14.144531 17.332031 L 14.148438 17.328125 C 14.796875 17.214844 15.378906 16.902344 15.828125 16.457031 C 16.328125 15.960938 16.226562 15.179688 15.824219 14.605469 L 13.960938 11.972656 C 13.558594 11.398438 12.851562 11.039062 12.21875 11.34375 C 11.28125 11.792969 10.597656 12.691406 10.449219 13.761719 C 10.175781 15.265625 10.210938 16.8125 10.546875 18.308594 C 10.910156 19.90625 11.609375 21.410156 12.597656 22.714844 C 13.589844 24.023438 14.847656 25.101562 16.289062 25.878906 C 17.6875 26.632812 19.226562 27.089844 20.808594 27.21875 C 20.851562 27.222656 20.894531 27.226562 20.933594 27.230469 Z M 20.960938 27.230469 " fill-opacity="1" fill-rule="evenodd"/><g clip-path="url(#63f224ba8d)"><path fill="#000000" d="M 18.503906 33.304688 C 26.679688 33.304688 33.304688 26.679688 33.304688 18.503906 C 33.304688 10.328125 26.679688 3.699219 18.503906 3.699219 C 10.328125 3.699219 3.699219 10.328125 3.699219 18.503906 C 3.699219 26.679688 10.328125 33.304688 18.503906 33.304688 Z M 32.5 18.503906 C 32.5 26.234375 26.234375 32.5 18.503906 32.5 C 10.773438 32.5 4.503906 26.234375 4.503906 18.503906 C 4.503906 10.773438 10.773438 4.503906 18.503906 4.503906 C 26.234375 4.503906 32.5 10.773438 32.5 18.503906 Z M 32.5 18.503906 " fill-opacity="1" fill-rule="evenodd"/></g></svg>