<svg xmlns="http://www.w3.org/2000/svg" xmlns:xlink="http://www.w3.org/1999/xlink" width="50" zoomAndPan="magnify" viewBox="0 0 37.5 37.499999" height="50" preserveAspectRatio="xMidYMid meet" version="1.0"><defs><clipPath id="f93027e24f"><path d="M 4.394531 3.078125 L 32.519531 3.078125 L 32.519531 34.164062 L 4.394531 34.164062 Z M 4.394531 3.078125 " clip-rule="nonzero"/></clipPath></defs><g clip-path="url(#f93027e24f)"><path fill="#000000" d="M 32.472656 12.671875 C 32.472656 12.628906 32.46875 12.585938 32.457031 12.542969 C 32.449219 11.464844 32.433594 10.585938 32.414062 10.03125 C 32.332031 7.925781 31.175781 6.78125 30.21875 6.195312 C 29.71875 5.890625 29.1875 5.664062 28.625 5.519531 L 28.625 3.671875 C 28.625 3.515625 28.570312 3.382812 28.460938 3.269531 C 28.351562 3.160156 28.222656 3.105469 28.066406 3.105469 C 27.914062 3.105469 27.78125 3.160156 27.671875 3.269531 C 27.5625 3.382812 27.507812 3.515625 27.507812 3.671875 L 27.507812 5.417969 L 24.019531 5.417969 L 24.019531 3.914062 C 24.019531 3.757812 23.964844 3.625 23.855469 3.511719 C 23.746094 3.402344 23.617188 3.347656 23.460938 3.347656 C 23.308594 3.347656 23.175781 3.402344 23.066406 3.511719 C 22.957031 3.625 22.902344 3.757812 22.902344 3.914062 L 22.902344 5.417969 L 19.621094 5.417969 L 19.621094 3.914062 C 19.621094 3.757812 19.566406 3.625 19.457031 3.511719 C 19.347656 3.402344 19.214844 3.347656 19.0625 3.347656 C 18.90625 3.347656 18.777344 3.402344 18.667969 3.511719 C 18.558594 3.625 18.503906 3.757812 18.503906 3.914062 L 18.503906 5.417969 L 15.082031 5.417969 L 15.082031 3.914062 C 15.082031 3.757812 15.027344 3.625 14.917969 3.511719 C 14.808594 3.402344 14.675781 3.347656 14.523438 3.347656 C 14.371094 3.347656 14.238281 3.402344 14.128906 3.511719 C 14.019531 3.625 13.964844 3.757812 13.964844 3.914062 L 13.964844 5.417969 L 10.476562 5.417969 L 10.476562 3.671875 C 10.476562 3.515625 10.421875 3.382812 10.3125 3.269531 C 10.203125 3.160156 10.070312 3.105469 9.917969 3.105469 C 9.761719 3.105469 9.632812 3.160156 9.523438 3.269531 C 9.414062 3.382812 9.359375 3.515625 9.359375 3.671875 L 9.359375 5.453125 C 7.148438 5.664062 5.945312 6.675781 5.308594 7.535156 C 4.824219 8.1875 4.527344 8.914062 4.414062 9.71875 L 4.414062 12.625 C 4.414062 12.636719 4.414062 12.652344 4.414062 12.664062 C 4.414062 12.679688 4.414062 12.691406 4.414062 12.703125 L 4.414062 29.878906 L 4.421875 29.917969 C 4.550781 30.648438 4.816406 31.324219 5.214844 31.949219 C 5.820312 32.890625 6.992188 34.03125 9.132812 34.128906 C 9.738281 34.15625 10.660156 34.167969 11.773438 34.167969 C 17.386719 34.167969 27.960938 33.882812 28.492188 33.871094 L 28.527344 33.871094 L 28.558594 33.867188 C 29.765625 33.6875 32.128906 32.707031 32.410156 30.25 L 32.414062 30.195312 C 32.414062 30.054688 32.507812 18.675781 32.460938 12.792969 C 32.46875 12.753906 32.472656 12.714844 32.472656 12.671875 Z M 9.359375 6.59375 L 9.359375 8.398438 C 9.359375 8.554688 9.414062 8.6875 9.523438 8.796875 C 9.632812 8.90625 9.761719 8.960938 9.917969 8.960938 C 10.070312 8.960938 10.203125 8.90625 10.3125 8.796875 C 10.421875 8.6875 10.476562 8.554688 10.476562 8.398438 L 10.476562 6.542969 L 13.964844 6.542969 L 13.964844 8.394531 C 13.964844 8.550781 14.019531 8.683594 14.128906 8.792969 C 14.238281 8.902344 14.371094 8.957031 14.523438 8.957031 C 14.675781 8.957031 14.808594 8.902344 14.917969 8.792969 C 15.027344 8.683594 15.082031 8.550781 15.082031 8.394531 L 15.082031 6.542969 L 18.503906 6.542969 L 18.503906 8.222656 C 18.503906 8.378906 18.558594 8.511719 18.667969 8.621094 C 18.777344 8.730469 18.90625 8.785156 19.0625 8.785156 C 19.214844 8.785156 19.347656 8.730469 19.457031 8.621094 C 19.566406 8.511719 19.621094 8.378906 19.621094 8.222656 L 19.621094 6.542969 L 22.90625 6.542969 L 22.90625 8.394531 C 22.90625 8.550781 22.960938 8.683594 23.066406 8.792969 C 23.175781 8.902344 23.308594 8.957031 23.460938 8.957031 C 23.617188 8.957031 23.75 8.902344 23.855469 8.792969 C 23.964844 8.683594 24.019531 8.550781 24.019531 8.394531 L 24.019531 6.542969 L 27.511719 6.542969 L 27.511719 8.601562 C 27.511719 8.757812 27.566406 8.890625 27.671875 9 C 27.78125 9.109375 27.914062 9.164062 28.066406 9.164062 C 28.222656 9.164062 28.355469 9.109375 28.460938 9 C 28.570312 8.890625 28.625 8.757812 28.625 8.601562 L 28.625 6.683594 C 29.546875 6.980469 31.210938 7.820312 31.296875 10.070312 C 31.316406 10.539062 31.328125 11.242188 31.339844 12.101562 L 5.527344 12.101562 L 5.527344 9.800781 C 5.5625 9.515625 5.980469 6.964844 9.359375 6.589844 Z M 31.300781 30.152344 C 31.039062 32.230469 28.726562 32.695312 28.425781 32.746094 C 27.578125 32.769531 12.71875 33.160156 9.183594 33.003906 C 6.164062 32.871094 5.59375 30.152344 5.53125 29.796875 L 5.53125 13.234375 L 31.347656 13.234375 C 31.386719 19.046875 31.300781 29.492188 31.300781 30.152344 Z M 31.300781 30.152344 " fill-opacity="1" fill-rule="nonzero"/></g><path fill="#000000" d="M 10.519531 19.546875 L 14.226562 19.546875 L 14.226562 15.691406 L 10.519531 15.691406 Z M 11.636719 16.820312 L 13.113281 16.820312 L 13.113281 18.417969 L 11.636719 18.417969 Z M 11.636719 16.820312 " fill-opacity="1" fill-rule="nonzero"/><path fill="#000000" d="M 16.523438 19.484375 L 20.273438 19.484375 L 20.273438 15.691406 L 16.523438 15.691406 Z M 17.640625 16.820312 L 19.160156 16.820312 L 19.160156 18.355469 L 17.640625 18.355469 Z M 17.640625 16.820312 " fill-opacity="1" fill-rule="nonzero"/><path fill="#000000" d="M 26.1875 15.691406 L 22.5625 15.691406 L 22.5625 19.476562 L 26.1875 19.476562 Z M 25.070312 18.347656 L 23.679688 18.347656 L 23.679688 16.820312 L 25.070312 16.820312 Z M 25.070312 18.347656 " fill-opacity="1" fill-rule="nonzero"/><path fill="#000000" d="M 22.5625 24.796875 L 26.261719 24.796875 L 26.261719 21.054688 L 22.5625 21.054688 Z M 23.679688 22.183594 L 25.148438 22.183594 L 25.148438 23.667969 L 23.679688 23.667969 Z M 23.679688 22.183594 " fill-opacity="1" fill-rule="nonzero"/><path fill="#000000" d="M 22.5625 30.121094 L 26.210938 30.121094 L 26.210938 26.433594 L 22.5625 26.433594 Z M 23.679688 27.5625 L 25.09375 27.5625 L 25.09375 28.996094 L 23.679688 28.996094 Z M 23.679688 27.5625 " fill-opacity="1" fill-rule="nonzero"/><path fill="#000000" d="M 16.523438 30.210938 L 20.207031 30.210938 L 20.207031 26.488281 L 16.523438 26.488281 Z M 17.640625 27.613281 L 19.089844 27.613281 L 19.089844 29.082031 L 17.640625 29.082031 Z M 17.640625 27.613281 " fill-opacity="1" fill-rule="nonzero"/><path fill="#000000" d="M 16.523438 24.796875 L 20.222656 24.796875 L 20.222656 21.054688 L 16.523438 21.054688 Z M 17.640625 22.183594 L 19.109375 22.183594 L 19.109375 23.667969 L 17.640625 23.667969 Z M 17.640625 22.183594 " fill-opacity="1" fill-rule="nonzero"/><path fill="#000000" d="M 10.605469 24.796875 L 14.160156 24.796875 L 14.160156 21.054688 L 10.605469 21.054688 Z M 11.71875 22.183594 L 13.042969 22.183594 L 13.042969 23.667969 L 11.71875 23.667969 Z M 11.71875 22.183594 " fill-opacity="1" fill-rule="nonzero"/><path fill="#000000" d="M 10.605469 30.027344 L 14.160156 30.027344 L 14.160156 26.433594 L 10.605469 26.433594 Z M 11.71875 27.5625 L 13.042969 27.5625 L 13.042969 28.898438 L 11.71875 28.898438 Z M 11.71875 27.5625 " fill-opacity="1" fill-rule="nonzero"/></svg>