<svg xmlns="http://www.w3.org/2000/svg" xmlns:xlink="http://www.w3.org/1999/xlink" width="50" zoomAndPan="magnify" viewBox="0 0 37.5 37.499999" height="50" preserveAspectRatio="xMidYMid meet" version="1.0"><defs><clipPath id="c88a3421b0"><path d="M 3.609375 8.320312 L 33.214844 8.320312 L 33.214844 29.042969 L 3.609375 29.042969 Z M 3.609375 8.320312 " clip-rule="nonzero"/></clipPath></defs><g clip-path="url(#c88a3421b0)"><path fill="#000000" d="M 33.1875 10.910156 C 33.1875 10.566406 33.121094 10.238281 32.992188 9.921875 C 32.863281 9.605469 32.679688 9.324219 32.441406 9.082031 C 32.203125 8.835938 31.929688 8.648438 31.621094 8.515625 C 31.3125 8.382812 30.988281 8.316406 30.652344 8.316406 L 6.167969 8.316406 C 5.832031 8.316406 5.507812 8.382812 5.199219 8.515625 C 4.886719 8.644531 4.613281 8.835938 4.375 9.078125 C 4.140625 9.320312 3.957031 9.601562 3.828125 9.917969 C 3.699219 10.238281 3.632812 10.566406 3.632812 10.910156 L 3.632812 26.453125 C 3.632812 26.796875 3.699219 27.125 3.828125 27.441406 C 3.960938 27.761719 4.140625 28.039062 4.378906 28.285156 C 4.617188 28.527344 4.890625 28.714844 5.199219 28.847656 C 5.511719 28.980469 5.832031 29.046875 6.167969 29.050781 L 30.652344 29.050781 C 30.988281 29.046875 31.3125 28.980469 31.621094 28.851562 C 31.933594 28.71875 32.207031 28.53125 32.445312 28.285156 C 32.683594 28.042969 32.867188 27.761719 32.996094 27.445312 C 33.125 27.128906 33.1875 26.796875 33.1875 26.453125 Z M 23.316406 18.683594 L 32.0625 10.085938 C 32.207031 10.339844 32.277344 10.617188 32.277344 10.910156 L 32.277344 26.453125 C 32.277344 26.746094 32.207031 27.023438 32.0625 27.277344 Z M 30.652344 9.246094 C 30.917969 9.246094 31.171875 9.3125 31.40625 9.4375 L 18.996094 21.636719 C 18.832031 21.796875 18.636719 21.878906 18.410156 21.878906 C 18.183594 21.878906 17.988281 21.796875 17.824219 21.636719 L 5.414062 9.4375 C 5.648438 9.3125 5.902344 9.246094 6.167969 9.25 Z M 4.757812 27.277344 C 4.613281 27.023438 4.542969 26.746094 4.542969 26.453125 L 4.542969 10.910156 C 4.542969 10.617188 4.613281 10.339844 4.757812 10.085938 L 13.503906 18.683594 Z M 6.167969 28.117188 C 5.902344 28.117188 5.648438 28.054688 5.414062 27.925781 L 14.164062 19.328125 L 17.195312 22.308594 C 17.359375 22.46875 17.546875 22.59375 17.753906 22.679688 C 17.964844 22.765625 18.183594 22.808594 18.410156 22.808594 C 18.636719 22.808594 18.855469 22.765625 19.066406 22.679688 C 19.277344 22.59375 19.460938 22.46875 19.625 22.308594 L 22.660156 19.328125 L 31.40625 27.925781 C 31.171875 28.054688 30.917969 28.117188 30.652344 28.117188 Z M 6.167969 28.117188 " fill-opacity="1" fill-rule="nonzero"/></g></svg>