<svg xmlns="http://www.w3.org/2000/svg" xmlns:xlink="http://www.w3.org/1999/xlink" width="50" zoomAndPan="magnify" viewBox="0 0 37.5 37.499999" height="50" preserveAspectRatio="xMidYMid meet" version="1.0"><defs><clipPath id="549efdbecd"><path d="M 3.03125 8.347656 L 34.117188 8.347656 L 34.117188 28.332031 L 3.03125 28.332031 Z M 3.03125 8.347656 " clip-rule="nonzero"/></clipPath></defs><g clip-path="url(#549efdbecd)"><path fill="#000000" d="M 32.335938 8.402344 L 4.785156 8.402344 C 4.550781 8.402344 4.328125 8.445312 4.109375 8.535156 C 3.894531 8.621094 3.703125 8.746094 3.539062 8.910156 C 3.371094 9.070312 3.246094 9.257812 3.15625 9.46875 C 3.066406 9.679688 3.019531 9.902344 3.019531 10.128906 L 3.019531 26.574219 C 3.019531 26.804688 3.066406 27.023438 3.15625 27.238281 C 3.246094 27.449219 3.371094 27.636719 3.539062 27.796875 C 3.703125 27.960938 3.894531 28.085938 4.109375 28.171875 C 4.328125 28.261719 4.550781 28.304688 4.785156 28.304688 L 32.335938 28.304688 C 32.570312 28.304688 32.796875 28.261719 33.011719 28.171875 C 33.226562 28.085938 33.417969 27.960938 33.585938 27.796875 C 33.75 27.636719 33.878906 27.449219 33.96875 27.238281 C 34.058594 27.023438 34.101562 26.804688 34.101562 26.574219 L 34.101562 10.128906 C 34.101562 9.902344 34.058594 9.679688 33.96875 9.46875 C 33.878906 9.257812 33.75 9.070312 33.585938 8.910156 C 33.417969 8.746094 33.226562 8.621094 33.011719 8.535156 C 32.796875 8.445312 32.570312 8.402344 32.335938 8.402344 Z M 23.445312 18.351562 L 33.144531 9.886719 C 33.171875 9.964844 33.1875 10.046875 33.1875 10.128906 L 33.1875 26.574219 C 33.1875 26.660156 33.171875 26.742188 33.144531 26.820312 Z M 32.335938 9.296875 C 32.367188 9.300781 32.398438 9.300781 32.433594 9.308594 L 19.125 20.921875 C 18.964844 21.0625 18.773438 21.132812 18.558594 21.132812 C 18.34375 21.132812 18.15625 21.0625 17.992188 20.921875 L 4.691406 9.308594 C 4.722656 9.300781 4.753906 9.300781 4.785156 9.296875 Z M 3.976562 26.820312 C 3.949219 26.742188 3.9375 26.660156 3.9375 26.574219 L 3.9375 10.128906 C 3.9375 10.046875 3.949219 9.964844 3.976562 9.886719 L 13.675781 18.351562 Z M 4.785156 27.410156 C 4.753906 27.40625 4.722656 27.40625 4.691406 27.398438 L 14.363281 18.953125 L 17.386719 21.59375 C 17.550781 21.734375 17.730469 21.839844 17.933594 21.917969 C 18.136719 21.992188 18.34375 22.03125 18.5625 22.03125 C 18.777344 22.03125 18.988281 21.992188 19.191406 21.917969 C 19.390625 21.839844 19.574219 21.734375 19.734375 21.59375 L 22.757812 18.953125 L 32.433594 27.398438 C 32.398438 27.402344 32.367188 27.40625 32.335938 27.410156 Z M 4.785156 27.410156 " fill-opacity="1" fill-rule="nonzero"/></g></svg>