<svg xmlns="http://www.w3.org/2000/svg" xmlns:xlink="http://www.w3.org/1999/xlink" width="50" zoomAndPan="magnify" viewBox="0 0 37.5 37.499999" height="50" preserveAspectRatio="xMidYMid meet" version="1.0"><defs><clipPath id="f7e1e6de7f"><path d="M 6 3 L 30 3 L 30 34.398438 L 6 34.398438 Z M 6 3 " clip-rule="nonzero"/></clipPath></defs><path fill="#000000" d="M 18.339844 20.734375 C 18.71875 20.734375 19.09375 20.695312 19.464844 20.621094 C 19.835938 20.546875 20.195312 20.4375 20.542969 20.289062 C 20.894531 20.144531 21.226562 19.964844 21.539062 19.75 C 21.855469 19.539062 22.144531 19.296875 22.414062 19.027344 C 22.679688 18.757812 22.917969 18.460938 23.128906 18.144531 C 23.339844 17.824219 23.515625 17.492188 23.660156 17.136719 C 23.804688 16.785156 23.914062 16.417969 23.988281 16.042969 C 24.0625 15.667969 24.097656 15.289062 24.097656 14.90625 C 24.097656 14.523438 24.0625 14.144531 23.988281 13.769531 C 23.914062 13.394531 23.804688 13.03125 23.660156 12.679688 C 23.515625 12.324219 23.339844 11.988281 23.128906 11.671875 C 22.917969 11.351562 22.679688 11.058594 22.414062 10.789062 C 22.144531 10.515625 21.855469 10.277344 21.539062 10.0625 C 21.226562 9.851562 20.894531 9.671875 20.542969 9.523438 C 20.195312 9.378906 19.835938 9.269531 19.464844 9.195312 C 19.09375 9.117188 18.71875 9.082031 18.339844 9.082031 C 17.960938 9.082031 17.589844 9.117188 17.21875 9.195312 C 16.847656 9.269531 16.488281 9.378906 16.136719 9.523438 C 15.789062 9.671875 15.457031 9.851562 15.140625 10.0625 C 14.828125 10.277344 14.535156 10.515625 14.269531 10.789062 C 14 11.058594 13.761719 11.351562 13.554688 11.671875 C 13.34375 11.988281 13.164062 12.324219 13.019531 12.679688 C 12.875 13.03125 12.765625 13.394531 12.695312 13.769531 C 12.621094 14.144531 12.582031 14.523438 12.582031 14.90625 C 12.582031 15.289062 12.621094 15.667969 12.695312 16.042969 C 12.769531 16.417969 12.878906 16.78125 13.023438 17.136719 C 13.167969 17.488281 13.347656 17.824219 13.554688 18.140625 C 13.765625 18.460938 14.003906 18.753906 14.273438 19.023438 C 14.539062 19.292969 14.832031 19.535156 15.144531 19.75 C 15.457031 19.960938 15.789062 20.140625 16.140625 20.285156 C 16.488281 20.433594 16.847656 20.542969 17.21875 20.621094 C 17.589844 20.695312 17.964844 20.734375 18.339844 20.734375 Z M 18.339844 10.117188 C 18.652344 10.117188 18.960938 10.148438 19.265625 10.210938 C 19.574219 10.273438 19.871094 10.363281 20.160156 10.484375 C 20.445312 10.605469 20.71875 10.753906 20.980469 10.925781 C 21.238281 11.101562 21.480469 11.300781 21.699219 11.523438 C 21.921875 11.75 22.117188 11.992188 22.289062 12.253906 C 22.464844 12.515625 22.609375 12.792969 22.730469 13.085938 C 22.847656 13.375 22.9375 13.675781 23 13.984375 C 23.058594 14.296875 23.089844 14.609375 23.089844 14.921875 C 23.089844 15.238281 23.058594 15.550781 23 15.859375 C 22.9375 16.171875 22.847656 16.472656 22.730469 16.761719 C 22.609375 17.054688 22.464844 17.332031 22.289062 17.59375 C 22.117188 17.855469 21.921875 18.097656 21.699219 18.320312 C 21.480469 18.546875 21.238281 18.746094 20.980469 18.917969 C 20.71875 19.09375 20.445312 19.242188 20.160156 19.363281 C 19.871094 19.484375 19.574219 19.574219 19.265625 19.636719 C 18.960938 19.699219 18.652344 19.730469 18.339844 19.730469 C 18.027344 19.730469 17.71875 19.699219 17.414062 19.636719 C 17.109375 19.574219 16.8125 19.484375 16.523438 19.363281 C 16.234375 19.242188 15.960938 19.09375 15.703125 18.917969 C 15.441406 18.746094 15.203125 18.546875 14.980469 18.320312 C 14.761719 18.097656 14.566406 17.855469 14.390625 17.59375 C 14.21875 17.332031 14.070312 17.054688 13.953125 16.761719 C 13.832031 16.472656 13.742188 16.171875 13.683594 15.859375 C 13.621094 15.550781 13.589844 15.238281 13.589844 14.921875 C 13.589844 14.609375 13.621094 14.296875 13.683594 13.984375 C 13.742188 13.675781 13.832031 13.375 13.953125 13.085938 C 14.070312 12.792969 14.21875 12.515625 14.390625 12.253906 C 14.566406 11.992188 14.761719 11.75 14.980469 11.523438 C 15.203125 11.300781 15.441406 11.101562 15.703125 10.925781 C 15.960938 10.753906 16.234375 10.605469 16.523438 10.484375 C 16.8125 10.363281 17.109375 10.273438 17.414062 10.210938 C 17.71875 10.148438 18.027344 10.117188 18.339844 10.117188 Z M 18.339844 10.117188 " fill-opacity="1" fill-rule="nonzero"/><g clip-path="url(#f7e1e6de7f)"><path fill="#000000" d="M 17.925781 34.179688 C 17.972656 34.246094 18.035156 34.296875 18.109375 34.332031 C 18.183594 34.367188 18.257812 34.386719 18.339844 34.386719 C 18.421875 34.386719 18.5 34.367188 18.574219 34.332031 C 18.644531 34.296875 18.707031 34.246094 18.757812 34.179688 L 28.242188 20.515625 L 28.273438 20.464844 C 28.511719 20.03125 28.71875 19.582031 28.898438 19.121094 C 29.078125 18.65625 29.230469 18.183594 29.347656 17.703125 C 29.46875 17.21875 29.554688 16.730469 29.613281 16.238281 C 29.667969 15.746094 29.695312 15.25 29.6875 14.753906 C 29.679688 14.253906 29.640625 13.761719 29.570312 13.269531 C 29.5 12.777344 29.398438 12.292969 29.265625 11.8125 C 29.132812 11.335938 28.96875 10.867188 28.777344 10.410156 C 28.585938 9.953125 28.363281 9.507812 28.113281 9.082031 C 27.863281 8.652344 27.589844 8.242188 27.285156 7.851562 C 26.984375 7.460938 26.65625 7.089844 26.308594 6.738281 C 25.957031 6.390625 25.585938 6.066406 25.195312 5.765625 C 24.804688 5.464844 24.394531 5.191406 23.96875 4.945312 C 23.542969 4.699219 23.101562 4.480469 22.644531 4.292969 C 22.191406 4.105469 21.726562 3.945312 21.25 3.820312 C 20.777344 3.691406 20.296875 3.59375 19.808594 3.53125 C 19.320312 3.46875 18.832031 3.433594 18.339844 3.433594 C 17.847656 3.433594 17.359375 3.46875 16.871094 3.53125 C 16.386719 3.59375 15.90625 3.691406 15.429688 3.820312 C 14.953125 3.945312 14.492188 4.105469 14.035156 4.292969 C 13.582031 4.480469 13.140625 4.699219 12.714844 4.945312 C 12.289062 5.191406 11.878906 5.464844 11.488281 5.765625 C 11.09375 6.066406 10.722656 6.390625 10.375 6.738281 C 10.023438 7.089844 9.699219 7.460938 9.394531 7.851562 C 9.09375 8.242188 8.816406 8.652344 8.566406 9.082031 C 8.320312 9.507812 8.097656 9.953125 7.902344 10.410156 C 7.710938 10.867188 7.546875 11.335938 7.414062 11.8125 C 7.28125 12.292969 7.179688 12.777344 7.109375 13.269531 C 7.039062 13.761719 7 14.253906 6.996094 14.753906 C 6.988281 15.25 7.011719 15.746094 7.070312 16.238281 C 7.125 16.730469 7.214844 17.21875 7.332031 17.703125 C 7.453125 18.183594 7.601562 18.65625 7.78125 19.121094 C 7.960938 19.582031 8.171875 20.03125 8.40625 20.464844 L 8.441406 20.515625 Z M 8.011719 14.90625 C 8.011719 14.511719 8.035156 14.113281 8.078125 13.71875 C 8.125 13.324219 8.191406 12.933594 8.28125 12.546875 C 8.367188 12.160156 8.476562 11.78125 8.609375 11.40625 C 8.742188 11.03125 8.894531 10.667969 9.066406 10.3125 C 9.238281 9.953125 9.429688 9.609375 9.644531 9.273438 C 9.855469 8.941406 10.085938 8.617188 10.332031 8.3125 C 10.578125 8.003906 10.84375 7.710938 11.125 7.433594 C 11.40625 7.15625 11.699219 6.894531 12.011719 6.652344 C 12.320312 6.40625 12.644531 6.183594 12.980469 5.976562 C 13.316406 5.769531 13.660156 5.585938 14.015625 5.417969 C 14.375 5.253906 14.738281 5.105469 15.113281 4.984375 C 15.484375 4.859375 15.863281 4.757812 16.246094 4.675781 C 16.632812 4.59375 17.019531 4.539062 17.410156 4.5 C 17.800781 4.464844 18.191406 4.453125 18.585938 4.460938 C 18.976562 4.472656 19.367188 4.503906 19.757812 4.558594 C 20.144531 4.613281 20.53125 4.6875 20.910156 4.789062 C 21.289062 4.886719 21.664062 5.007812 22.03125 5.148438 C 22.398438 5.289062 22.753906 5.453125 23.101562 5.636719 C 23.449219 5.820312 23.789062 6.019531 24.113281 6.242188 C 24.4375 6.464844 24.75 6.707031 25.050781 6.964844 C 25.347656 7.222656 25.628906 7.496094 25.898438 7.785156 C 26.164062 8.078125 26.414062 8.382812 26.648438 8.699219 C 26.882812 9.019531 27.097656 9.351562 27.292969 9.695312 C 27.488281 10.039062 27.664062 10.394531 27.820312 10.757812 C 27.976562 11.125 28.109375 11.496094 28.226562 11.875 C 28.339844 12.253906 28.429688 12.640625 28.5 13.03125 C 28.570312 13.421875 28.621094 13.816406 28.644531 14.210938 C 28.671875 14.609375 28.675781 15.003906 28.65625 15.402344 C 28.640625 15.796875 28.597656 16.191406 28.535156 16.585938 C 28.472656 16.976562 28.386719 17.363281 28.28125 17.746094 C 28.175781 18.128906 28.046875 18.503906 27.898438 18.871094 C 27.75 19.238281 27.582031 19.59375 27.390625 19.941406 L 18.339844 32.984375 L 9.289062 19.941406 C 8.4375 18.375 8.011719 16.695312 8.011719 14.90625 Z M 8.011719 14.90625 " fill-opacity="1" fill-rule="nonzero"/></g></svg>