<svg xmlns="http://www.w3.org/2000/svg" xmlns:xlink="http://www.w3.org/1999/xlink" width="50" zoomAndPan="magnify" viewBox="0 0 37.5 37.499999" height="50" preserveAspectRatio="xMidYMid meet" version="1.0"><defs><clipPath id="efae9f8b13"><path d="M 8.839844 2.296875 L 28.082031 2.296875 L 28.082031 34.863281 L 8.839844 34.863281 Z M 8.839844 2.296875 " clip-rule="nonzero"/></clipPath></defs><g clip-path="url(#efae9f8b13)"><path fill="#000000" d="M 24.492188 2.296875 L 12.433594 2.296875 C 10.457031 2.296875 8.847656 3.921875 8.847656 5.917969 L 8.847656 31.242188 C 8.847656 33.238281 10.457031 34.863281 12.433594 34.863281 L 24.492188 34.863281 C 26.46875 34.863281 28.078125 33.238281 28.078125 31.242188 L 28.078125 5.917969 C 28.078125 3.921875 26.46875 2.296875 24.492188 2.296875 Z M 9.890625 6.445312 L 27.03125 6.445312 L 27.03125 28.328125 L 9.890625 28.328125 Z M 12.433594 3.351562 L 24.492188 3.351562 C 25.714844 3.351562 26.738281 4.230469 26.980469 5.390625 L 9.945312 5.390625 C 10.1875 4.230469 11.210938 3.351562 12.433594 3.351562 Z M 24.492188 33.808594 L 12.433594 33.808594 C 11.03125 33.808594 9.890625 32.65625 9.890625 31.242188 L 9.890625 29.378906 L 27.03125 29.378906 L 27.03125 31.242188 C 27.03125 32.65625 25.890625 33.808594 24.492188 33.808594 Z M 24.492188 33.808594 " fill-opacity="1" fill-rule="nonzero"/></g><path fill="#000000" d="M 18.460938 30.058594 C 17.628906 30.058594 16.953125 30.742188 16.953125 31.582031 C 16.953125 32.417969 17.628906 33.101562 18.460938 33.101562 C 19.292969 33.101562 19.96875 32.417969 19.96875 31.582031 C 19.96875 30.742188 19.292969 30.058594 18.460938 30.058594 Z M 18.460938 32.046875 C 18.207031 32.046875 18 31.835938 18 31.582031 C 18 31.324219 18.207031 31.113281 18.460938 31.113281 C 18.71875 31.113281 18.925781 31.324219 18.925781 31.582031 C 18.925781 31.835938 18.71875 32.046875 18.460938 32.046875 Z M 18.460938 32.046875 " fill-opacity="1" fill-rule="nonzero"/></svg>