<svg xmlns="http://www.w3.org/2000/svg" xmlns:xlink="http://www.w3.org/1999/xlink" width="50" zoomAndPan="magnify" viewBox="0 0 37.5 37.499999" height="50" preserveAspectRatio="xMidYMid meet" version="1.0"><defs><clipPath id="6badb05bf8"><path d="M 4.070312 4.070312 L 33.675781 4.070312 L 33.675781 33.675781 L 4.070312 33.675781 Z M 4.070312 4.070312 " clip-rule="nonzero"/></clipPath></defs><g clip-path="url(#6badb05bf8)"><path fill="#000000" d="M 18.875 32.496094 C 11.363281 32.496094 5.25 26.386719 5.25 18.875 C 5.25 11.363281 11.363281 5.25 18.875 5.25 C 26.386719 5.25 32.496094 11.363281 32.496094 18.875 C 32.496094 26.386719 26.386719 32.496094 18.875 32.496094 Z M 32.511719 13.113281 C 31.765625 11.347656 30.699219 9.765625 29.339844 8.40625 C 27.980469 7.046875 26.398438 5.980469 24.636719 5.234375 C 22.808594 4.460938 20.871094 4.070312 18.875 4.070312 C 16.875 4.070312 14.9375 4.460938 13.113281 5.234375 C 11.347656 5.980469 9.765625 7.046875 8.40625 8.40625 C 7.046875 9.765625 5.980469 11.347656 5.234375 13.113281 C 4.460938 14.9375 4.070312 16.875 4.070312 18.875 C 4.070312 20.871094 4.460938 22.808594 5.234375 24.636719 C 5.980469 26.398438 7.046875 27.980469 8.40625 29.339844 C 9.765625 30.699219 11.347656 31.765625 13.113281 32.511719 C 14.9375 33.285156 16.875 33.675781 18.875 33.675781 C 20.871094 33.675781 22.808594 33.285156 24.636719 32.511719 C 26.398438 31.765625 27.980469 30.699219 29.339844 29.339844 C 30.699219 27.980469 31.765625 26.398438 32.511719 24.636719 C 33.285156 22.808594 33.675781 20.871094 33.675781 18.875 C 33.675781 16.875 33.285156 14.9375 32.511719 13.113281 " fill-opacity="1" fill-rule="nonzero"/></g><path fill="#000000" d="M 25.96875 23.871094 L 19.464844 18.59375 L 19.464844 11.589844 C 19.464844 11.265625 19.199219 11.003906 18.875 11.003906 C 18.546875 11.003906 18.285156 11.265625 18.285156 11.589844 L 18.285156 18.875 C 18.285156 19.050781 18.363281 19.21875 18.5 19.332031 L 25.226562 24.785156 C 25.335938 24.875 25.464844 24.917969 25.597656 24.917969 C 25.769531 24.917969 25.9375 24.84375 26.054688 24.699219 C 26.257812 24.445312 26.222656 24.074219 25.96875 23.871094 " fill-opacity="1" fill-rule="nonzero"/></svg>