<svg xmlns="http://www.w3.org/2000/svg" xmlns:xlink="http://www.w3.org/1999/xlink" width="50" zoomAndPan="magnify" viewBox="0 0 37.5 37.499999" height="50" preserveAspectRatio="xMidYMid meet" version="1.0"><defs><clipPath id="36627c52df"><path d="M 3.699219 17 L 33.304688 17 L 33.304688 33.890625 L 3.699219 33.890625 Z M 3.699219 17 " clip-rule="nonzero"/></clipPath><clipPath id="120fb07e33"><path d="M 10 2.804688 L 27 2.804688 L 27 20 L 10 20 Z M 10 2.804688 " clip-rule="nonzero"/></clipPath></defs><g clip-path="url(#36627c52df)"><path fill="#231f20" d="M 28.511719 19.722656 L 25.996094 17.921875 L 25.136719 19.125 L 27.652344 20.933594 C 30.261719 22.800781 31.816406 25.832031 31.816406 29.042969 L 31.816406 31.679688 C 31.816406 32.089844 31.484375 32.417969 31.078125 32.417969 L 5.929688 32.417969 C 5.519531 32.417969 5.191406 32.089844 5.191406 31.679688 L 5.191406 28.898438 C 5.191406 25.777344 6.679688 22.792969 9.175781 20.914062 L 11.742188 18.984375 L 10.851562 17.800781 L 8.285156 19.730469 C 5.417969 21.878906 3.707031 25.304688 3.707031 28.890625 L 3.707031 31.675781 C 3.707031 32.898438 4.699219 33.890625 5.929688 33.890625 L 31.078125 33.890625 C 32.300781 33.890625 33.300781 32.898438 33.300781 31.667969 L 33.300781 29.03125 C 33.300781 25.347656 31.511719 21.871094 28.511719 19.722656 Z M 28.511719 19.722656 " fill-opacity="1" fill-rule="nonzero"/></g><g clip-path="url(#120fb07e33)"><path fill="#231f20" d="M 18.503906 19.085938 C 22.992188 19.085938 26.640625 15.4375 26.640625 10.945312 C 26.640625 6.457031 22.992188 2.804688 18.503906 2.804688 C 14.015625 2.804688 10.367188 6.457031 10.367188 10.945312 C 10.367188 15.4375 14.015625 19.085938 18.503906 19.085938 Z M 18.503906 4.28125 C 22.171875 4.28125 25.164062 7.277344 25.164062 10.945312 C 25.164062 14.613281 22.171875 17.609375 18.503906 17.609375 C 14.835938 17.609375 11.84375 14.621094 11.84375 10.945312 C 11.84375 7.269531 14.828125 4.28125 18.503906 4.28125 Z M 18.503906 4.28125 " fill-opacity="1" fill-rule="nonzero"/></g></svg>